<svg xmlns="http://www.w3.org/2000/svg" viewBox="0 0 64 64">
  <defs>
    <linearGradient id="grad" x1="0%" y1="0%" x2="100%" y2="100%">
      <stop offset="0%" style="stop-color:#6366f1;stop-opacity:1" />
      <stop offset="100%" style="stop-color:#8b5cf6;stop-opacity:1" />
    </linearGradient>
  </defs>
  <rect width="64" height="64" rx="14" fill="url(#grad)"/>
  <g fill="white">
    <path d="M20 24h28c1.1 0 2 .9 2 2v16c0 1.1-.9 2-2 2H20c-1.1 0-2-.9-2-2V26c0-1.1.9-2 2-2z" opacity="0.9"/>
    <circle cx="26" cy="44" r="3" fill="white"/>
    <circle cx="42" cy="44" r="3" fill="white"/>
    <path d="M18 20l-2-4H12c-.6 0-1 .4-1 1s.4 1 1 1h3.5l1.5 3" stroke="white" stroke-width="2" fill="none" stroke-linecap="round"/>
    <path d="M46 20l2-4h4c.6 0 1 .4 1 1s-.4 1-1 1h-3.5l-1.5 3" stroke="white" stroke-width="2" fill="none" stroke-linecap="round"/>
    <path d="M32 16v8" stroke="white" stroke-width="2.5" stroke-linecap="round"/>
  </g>
</svg>
